<svg width="375" height="91" viewBox="0 0 375 91" fill="none" xmlns="http://www.w3.org/2000/svg">
<g filter="url(#filter0_b_3177_15726)">
<path fill-rule="evenodd" clip-rule="evenodd" d="M0 91H375V8H0V91Z" fill="#121212"/>
</g>
<g opacity="0.2">
<path fill-rule="evenodd" clip-rule="evenodd" d="M0 8.5H375V8H0V8.5Z" fill="#8492BA"/>
</g>
<g clip-path="url(#clip0_3177_15726)">
<path d="M321 43H319V41C319 40.2044 318.684 39.4413 318.121 38.8787C317.559 38.3161 316.796 38 316 38H310C309.204 38 308.441 38.3161 307.879 38.8787C307.316 39.4413 307 40.2044 307 41V43H305V41C305 39.6739 305.527 38.4021 306.464 37.4645C307.402 36.5268 308.674 36 310 36H316C317.326 36 318.598 36.5268 319.536 37.4645C320.473 38.4021 321 39.6739 321 41V43ZM313 34C312.212 34 311.432 33.8448 310.704 33.5433C309.976 33.2417 309.315 32.7998 308.757 32.2426C308.2 31.6855 307.758 31.0241 307.457 30.2961C307.155 29.5681 307 28.7879 307 28C307 27.2121 307.155 26.4319 307.457 25.7039C307.758 24.9759 308.2 24.3145 308.757 23.7574C309.315 23.2002 309.976 22.7583 310.704 22.4567C311.432 22.1552 312.212 22 313 22C314.591 22 316.117 22.6321 317.243 23.7574C318.368 24.8826 319 26.4087 319 28C319 29.5913 318.368 31.1174 317.243 32.2426C316.117 33.3679 314.591 34 313 34V34ZM313 32C314.061 32 315.078 31.5786 315.828 30.8284C316.579 30.0783 317 29.0609 317 28C317 26.9391 316.579 25.9217 315.828 25.1716C315.078 24.4214 314.061 24 313 24C311.939 24 310.922 24.4214 310.172 25.1716C309.421 25.9217 309 26.9391 309 28C309 29.0609 309.421 30.0783 310.172 30.8284C310.922 31.5786 311.939 32 313 32V32Z" fill="white"/>
</g>
<g clip-path="url(#clip1_3177_15726)">
<path d="M194.374 37.103C195.023 35.5613 195.172 33.855 194.801 32.224C194.43 30.593 193.557 29.1194 192.305 28.0102C191.053 26.9011 189.485 26.2123 187.821 26.0405C186.157 25.8688 184.481 26.2229 183.029 27.053L182.037 25.316C183.555 24.4486 185.273 23.9944 187.021 23.9986C188.769 24.0028 190.486 24.4653 191.999 25.34C196.489 27.932 198.209 33.482 196.116 38.11L197.458 38.884L193.293 41.098L193.128 36.384L194.374 37.103V37.103ZM179.624 30.897C178.975 32.4387 178.826 34.145 179.197 35.776C179.568 37.4069 180.441 38.8806 181.693 39.9897C182.945 41.0989 184.513 41.7877 186.177 41.9594C187.841 42.1311 189.517 41.7771 190.969 40.947L191.961 42.684C190.443 43.5514 188.725 44.0056 186.977 44.0014C185.229 43.9972 183.512 43.5347 181.999 42.66C177.509 40.068 175.789 34.518 177.882 29.89L176.539 29.117L180.704 26.903L180.869 31.617L179.623 30.898L179.624 30.897ZM188.414 36.828L185.583 34L182.755 36.828L181.341 35.414L185.584 31.172L188.413 34L191.242 31.172L192.656 32.586L188.413 36.828H188.414Z" fill="white"/>
</g>
<g clip-path="url(#clip2_3177_15726)">
<path d="M64 43C63.4477 43 63 42.5523 63 42V34C63 33.4477 63.4477 33 64 33H70C70.5523 33 71 33.4477 71 34V42C71 42.5523 70.5523 43 70 43H64ZM54 35C53.4477 35 53 34.5523 53 34V26C53 25.4477 53.4477 25 54 25H60C60.5523 25 61 25.4477 61 26V34C61 34.5523 60.5523 35 60 35H54ZM58.5 33C58.7761 33 59 32.7761 59 32.5V27.5C59 27.2239 58.7761 27 58.5 27H55.5C55.2239 27 55 27.2239 55 27.5V32.5C55 32.7761 55.2239 33 55.5 33H58.5ZM54 43C53.4477 43 53 42.5523 53 42V38C53 37.4477 53.4477 37 54 37H60C60.5523 37 61 37.4477 61 38V42C61 42.5523 60.5523 43 60 43H54ZM55 40.5C55 40.7761 55.2239 41 55.5 41H58.5C58.7761 41 59 40.7761 59 40.5V39.5C59 39.2239 58.7761 39 58.5 39H55.5C55.2239 39 55 39.2239 55 39.5V40.5ZM65 40.5C65 40.7761 65.2239 41 65.5 41H68.5C68.7761 41 69 40.7761 69 40.5V35.5C69 35.2239 68.7761 35 68.5 35H65.5C65.2239 35 65 35.2239 65 35.5V40.5ZM63 26C63 25.4477 63.4477 25 64 25H70C70.5523 25 71 25.4477 71 26V30C71 30.5523 70.5523 31 70 31H64C63.4477 31 63 30.5523 63 30V26ZM65.5 27C65.2239 27 65 27.2239 65 27.5V28.5C65 28.7761 65.2239 29 65.5 29H68.5C68.7761 29 69 28.7761 69 28.5V27.5C69 27.2239 68.7761 27 68.5 27H65.5Z" fill="#6552FE"/>
</g>
<defs>
<filter id="filter0_b_3177_15726" x="-27.1828" y="-19.1828" width="429.366" height="137.366" filterUnits="userSpaceOnUse" color-interpolation-filters="sRGB">
<feFlood flood-opacity="0" result="BackgroundImageFix"/>
<feGaussianBlur in="BackgroundImageFix" stdDeviation="13.5914"/>
<feComposite in2="SourceAlpha" operator="in" result="effect1_backgroundBlur_3177_15726"/>
<feBlend mode="normal" in="SourceGraphic" in2="effect1_backgroundBlur_3177_15726" result="shape"/>
</filter>
<clipPath id="clip0_3177_15726">
<rect width="24" height="24" fill="white" transform="translate(301 21)"/>
</clipPath>
<clipPath id="clip1_3177_15726">
<rect width="24" height="24" fill="white" transform="translate(175 22)"/>
</clipPath>
<clipPath id="clip2_3177_15726">
<rect width="24" height="24" fill="white" transform="translate(50 22)"/>
</clipPath>
</defs>
</svg>
