<svg width="24" height="24" viewBox="0 0 24 24" fill="none" xmlns="http://www.w3.org/2000/svg">
<g clip-path="url(#clip0_3177_15728)">
<path d="M3.34128 16.9999C2.91855 16.2689 2.58995 15.4874 2.36328 14.6739C2.85659 14.423 3.27088 14.0406 3.56031 13.5688C3.84975 13.0971 4.00305 12.5545 4.00325 12.0011C4.00346 11.4476 3.85057 10.9049 3.56148 10.4329C3.2724 9.961 2.8584 9.57821 2.36528 9.32694C2.81732 7.69243 3.67801 6.1999 4.86628 4.98994C5.33037 5.29167 5.8689 5.45911 6.42226 5.47373C6.97562 5.48834 7.52223 5.34958 8.00161 5.07278C8.48099 4.79598 8.87443 4.39194 9.13841 3.90539C9.40238 3.41883 9.52659 2.86872 9.49728 2.31594C11.1394 1.89157 12.8625 1.89226 14.5043 2.31795C14.4752 2.87071 14.5997 3.42073 14.8639 3.90715C15.128 4.39357 15.5216 4.79742 16.0011 5.07401C16.4806 5.35059 17.0272 5.48913 17.5806 5.4743C18.1339 5.45946 18.6723 5.29183 19.1363 4.98994C19.7153 5.57994 20.2293 6.25095 20.6613 6.99995C21.0943 7.74895 21.4183 8.52995 21.6393 9.32595C21.146 9.57685 20.7317 9.95932 20.4423 10.4311C20.1528 10.9028 19.9995 11.4454 19.9993 11.9988C19.9991 12.5523 20.152 13.095 20.4411 13.5669C20.7302 14.0389 21.1442 14.4217 21.6373 14.6729C21.1852 16.3075 20.3246 17.8 19.1363 19.0099C18.6722 18.7082 18.1337 18.5408 17.5803 18.5262C17.0269 18.5115 16.4803 18.6503 16.001 18.9271C15.5216 19.2039 15.1281 19.6079 14.8642 20.0945C14.6002 20.5811 14.476 21.1312 14.5053 21.6839C12.8632 22.1083 11.1401 22.1076 9.49828 21.6819C9.52733 21.1292 9.40288 20.5792 9.1387 20.0927C8.87453 19.6063 8.48092 19.2025 8.00145 18.9259C7.52198 18.6493 6.97534 18.5108 6.42201 18.5256C5.86868 18.5404 5.33024 18.7081 4.86628 19.0099C4.27527 18.4069 3.76288 17.7315 3.34128 16.9999V16.9999ZM9.00128 17.1959C10.0669 17.8106 10.8681 18.797 11.2513 19.9659C11.7503 20.0129 12.2513 20.0139 12.7503 19.9669C13.1337 18.7978 13.9353 17.8114 15.0013 17.1969C16.0665 16.5806 17.3218 16.3794 18.5263 16.6319C18.8163 16.2239 19.0663 15.7889 19.2743 15.3339C18.4537 14.4174 18.0004 13.2302 18.0013 11.9999C18.0013 10.7399 18.4713 9.56295 19.2743 8.66595C19.0648 8.21109 18.8137 7.77658 18.5243 7.36795C17.3206 7.62025 16.0661 7.41942 15.0013 6.80395C13.9357 6.18932 13.1344 5.20293 12.7513 4.03394C12.2523 3.98694 11.7513 3.98594 11.2523 4.03294C10.8689 5.20209 10.0673 6.1885 9.00128 6.80295C7.93606 7.41926 6.68076 7.62046 5.47628 7.36795C5.18685 7.77623 4.93641 8.21081 4.72828 8.66595C5.54885 9.5825 6.00216 10.7697 6.00128 11.9999C6.00128 13.2599 5.53128 14.4369 4.72828 15.3339C4.93775 15.7888 5.18882 16.2233 5.47828 16.6319C6.682 16.3796 7.93649 16.5805 9.00128 17.1959ZM12.0013 14.9999C11.2056 14.9999 10.4426 14.6839 9.87996 14.1213C9.31735 13.5587 9.00128 12.7956 9.00128 11.9999C9.00128 11.2043 9.31735 10.4412 9.87996 9.87862C10.4426 9.31602 11.2056 8.99995 12.0013 8.99995C12.7969 8.99995 13.56 9.31602 14.1226 9.87862C14.6852 10.4412 15.0013 11.2043 15.0013 11.9999C15.0013 12.7956 14.6852 13.5587 14.1226 14.1213C13.56 14.6839 12.7969 14.9999 12.0013 14.9999ZM12.0013 12.9999C12.2665 12.9999 12.5209 12.8946 12.7084 12.7071C12.8959 12.5195 13.0013 12.2652 13.0013 11.9999C13.0013 11.7347 12.8959 11.4804 12.7084 11.2928C12.5209 11.1053 12.2665 10.9999 12.0013 10.9999C11.7361 10.9999 11.4817 11.1053 11.2942 11.2928C11.1066 11.4804 11.0013 11.7347 11.0013 11.9999C11.0013 12.2652 11.1066 12.5195 11.2942 12.7071C11.4817 12.8946 11.7361 12.9999 12.0013 12.9999V12.9999Z" fill="white"/>
</g>
<defs>
<clipPath id="clip0_3177_15728">
<rect width="24" height="24" fill="white"/>
</clipPath>
</defs>
</svg>
